<?xml version="1.0" encoding="UTF-8" standalone="no"?>
<!-- Created with Inkscape (http://www.inkscape.org/) -->

<svg
   width="128"
   height="128"
   viewBox="0 0 33.866667 33.866667"
   version="1.1"
   id="svg1"
   xml:space="preserve"
   inkscape:version="1.4 (e7c3feb1, 2024-10-09)"
   sodipodi:docname="favicon.svg"
   xmlns:inkscape="http://www.inkscape.org/namespaces/inkscape"
   xmlns:sodipodi="http://sodipodi.sourceforge.net/DTD/sodipodi-0.dtd"
   xmlns="http://www.w3.org/2000/svg"
   xmlns:svg="http://www.w3.org/2000/svg"><sodipodi:namedview
     id="namedview1"
     pagecolor="#ffffff"
     bordercolor="#000000"
     borderopacity="0.25"
     inkscape:showpageshadow="2"
     inkscape:pageopacity="0.0"
     inkscape:pagecheckerboard="0"
     inkscape:deskcolor="#d1d1d1"
     inkscape:document-units="mm"
     inkscape:zoom="4.4246155"
     inkscape:cx="82.041027"
     inkscape:cy="79.328927"
     inkscape:window-width="1200"
     inkscape:window-height="1027"
     inkscape:window-x="0"
     inkscape:window-y="25"
     inkscape:window-maximized="0"
     inkscape:current-layer="layer1"
     showguides="true"><sodipodi:guide
       position="17.019265,15.015362"
       orientation="0,-1"
       id="guide1"
       inkscape:locked="false" /><sodipodi:guide
       position="18.958046,14.979138"
       orientation="0,-1"
       id="guide2"
       inkscape:locked="false" /><sodipodi:guide
       position="8.5511197,20.841598"
       orientation="0,-1"
       id="guide3"
       inkscape:locked="false" /><sodipodi:guide
       position="25.738915,14.462847"
       orientation="0,-1"
       id="guide4"
       inkscape:locked="false" /></sodipodi:namedview><defs
     id="defs1" /><g
     inkscape:label="Layer 1"
     inkscape:groupmode="layer"
     id="layer1"
     transform="translate(-10.636672,-129.87752)"><g
       id="g8"
       transform="matrix(0.25042033,0,0,0.25042033,7.9509033,97.518281)"
       style="stroke-width:3.99329"><path
         id="path11"
         style="fill:#000000;stroke-width:3.99329"
         d="m 16.549941,181.23252 -1.548225,0.64958 -1.548743,0.64957 -0.03617,0.30024 c -0.03779,0.31257 -0.237524,3.34664 -0.488859,7.42125 -0.08053,1.30549 -0.46315,7.31372 -0.850077,13.35164 -0.386926,6.03791 -1.304083,20.37424 -2.038118,31.85852 -0.7340358,11.48427 -1.3557143,21.10575 -1.3813118,21.38113 l -0.0062,0.0667 c -0.0072,0.0143 -0.04031,0.0236 -0.04031,0.0388 v 0.39532 7.7773 c 0,0.12272 0.24954,0.2217 0.559655,0.2217 H 147.51778 c 0.31012,0 0.55966,-0.099 0.55966,-0.2217 v -7.7773 -0.39532 c 0,-0.0182 -0.0382,-0.0296 -0.0486,-0.0465 -0.0237,-0.23656 -0.065,-0.79002 -0.10335,-1.45004 -0.0427,-0.73435 -0.14186,-2.33609 -0.22066,-3.55999 -0.0788,-1.22391 -0.22845,-3.56058 -0.33228,-5.19245 -0.29315,-4.60744 -1.2354,-19.36818 -1.81797,-28.48353 -0.30305,-4.74165 -0.4926,-7.73732 -0.5855,-9.25112 -0.0293,-0.47803 -0.0695,-0.88547 -0.0894,-0.90537 -0.0199,-0.0199 -0.41864,-0.21033 -0.88625,-0.42323 l -0.85008,-0.38705 -2.74453,-0.0553 c -1.50948,-0.0303 -4.64729,-0.0922 -6.9727,-0.13797 -2.32541,-0.0458 -8.30097,-0.16434 -13.2793,-0.26304 l -9.05164,-0.17932 -1.90893,0.35606 c -1.04975,0.19586 -1.91876,0.36994 -1.93166,0.38654 -0.0356,0.0459 -3.74609,4.25292 -4.86741,5.51904 l -0.98494,1.11259 0.0346,2.2624 c 0.0191,1.2443 0.2143,10.99921 0.43408,21.67774 l 0.38705,18.79886 -8.040302,0.0351 -0.01809,-0.6997 c -0.01853,-0.72414 -0.132251,-7.5251 -0.252698,-15.11329 -0.120446,-7.58819 -0.250625,-15.64942 -0.289905,-17.91364 -0.03928,-2.26422 -0.107562,-6.58666 -0.151412,-9.60561 -0.04386,-3.01896 -0.09861,-6.05644 -0.121956,-6.74998 l -0.04289,-1.2609 -1.011308,-0.31213 -1.011825,-0.31213 -8.381917,-0.15296 c -4.610028,-0.084 -6.235582,-0.20324 -6.847533,-0.22214 -0.611951,-0.0189 -2.130688,-0.0537 -3.374988,-0.077 l -2.262394,-0.0424 -1.146183,0.26613 c -0.630342,0.14633 -1.159062,0.27898 -1.175122,0.29508 -0.01605,0.0161 -0.13992,1.25832 -0.275436,2.76055 l -0.246496,2.73162 -0.0801,7.67705 c -0.04398,4.22246 -0.09773,8.74558 -0.119372,10.05107 -0.02164,1.3055 -0.07283,5.36105 -0.113688,9.01236 -0.04086,3.6513 -0.106071,9.17519 -0.145211,12.27574 -0.03913,3.10055 -0.07175,6.16324 -0.07235,6.80579 l -5.17e-4,0.55139 h -6.819492 l 0.02532,-0.81081 c 0.02481,-0.78533 0.146216,-8.33752 0.269751,-16.78244 0.407807,-27.87805 0.508515,-34.54464 0.67231,-44.50581 0.04494,-2.73338 0.08723,-6.26895 0.09354,-7.8574 l 0.01033,-2.56677 c 0.0059,0.0157 0.0067,0.0897 0.01499,0.0579 0.01866,-0.0714 0.01866,-0.18801 0,-0.25941 -0.0011,-0.004 -9.78e-4,0.0111 -0.0021,0.008 -0.0026,-0.0152 0.005,-0.0326 0,-0.045 -0.0069,-0.017 -0.0069,0.0286 -0.0124,0.031 l 5.16e-4,-0.11368 -1.891357,-0.73226 -1.891874,-0.73174 -10.013343,-0.29094 c -5.507555,-0.1601 -14.73205,-0.42736 -20.49849,-0.59376 z"
         sodipodi:nodetypes="ccccsssscscsssscscsssscssccccccccccccccssscccccscccscccsssscccssccccccccccccc" /></g></g></svg>
