<svg xmlns="http://www.w3.org/2000/svg" xml:space="preserve" width="128" height="128" viewBox="0 0 33.867 33.867"><g style="stroke-width:3.99329"><path d="m16.55 181.233-1.548.65-1.549.649-.036.3c-.038.312-.238 3.347-.49 7.421-.08 1.306-.462 7.314-.85 13.352l-2.037 31.858a8255 8255 0 0 1-1.382 21.381l-.006.067c-.007.014-.04.024-.04.039v8.173c0 .122.25.221.56.221h138.346c.31 0 .56-.099.56-.221v-8.173c0-.018-.039-.03-.05-.047-.023-.236-.064-.79-.103-1.45-.042-.734-.141-2.336-.22-3.56l-2.15-33.676a4562 4562 0 0 1-.586-9.25c-.03-.479-.07-.886-.09-.906s-.418-.21-.886-.423l-.85-.387-2.744-.056-6.973-.138c-2.325-.045-8.3-.164-13.28-.263l-9.05-.179-1.91.356c-1.05.196-1.919.37-1.931.387-.036.046-3.747 4.253-4.868 5.519l-.985 1.112.035 2.263c.019 1.244.214 10.999.434 21.677l.387 18.8-8.04.034-.018-.7c-.019-.723-.133-7.524-.253-15.113s-.25-15.649-.29-17.913-.108-6.587-.151-9.606a660 660 0 0 0-.122-6.75l-.043-1.26-1.012-.313-1.011-.312-8.382-.153c-4.61-.084-6.236-.203-6.848-.222s-2.13-.054-3.375-.077l-2.262-.043-1.146.267c-.63.146-1.16.279-1.176.295s-.14 1.258-.275 2.76l-.246 2.732-.08 7.677c-.045 4.222-.098 8.746-.12 10.051s-.073 5.361-.114 9.012c-.04 3.652-.106 9.176-.145 12.276s-.072 6.163-.072 6.806v.551h-6.82l.025-.81c.025-.786.146-8.338.27-16.783.408-27.878.508-34.545.672-44.506.045-2.733.087-6.269.094-7.857l.01-2.567c.006.016.007.09.015.058a.6.6 0 0 0 0-.26c-.001-.003-.001.012-.002.009-.003-.016.005-.033 0-.045-.007-.017-.007.028-.012.03v-.113l-1.891-.732-1.892-.732-10.014-.291-20.498-.594z" style="fill:#000;stroke-width:3.99329" transform="translate(-2.686 -32.36)scale(.25042)"/></g></svg>