<svg xmlns="http://www.w3.org/2000/svg" xml:space="preserve" width="512" height="512" viewBox="0 0 135.467 135.467"><path d="M33.653 230.952v-67.733H61.08l-.03 3.571c-.034 4.243-.347 25.648-.588 40.261a16380 16380 0 0 0-.79 52.74c-.051 3.784-.132 8.943-.179 11.466s-.126 7.8-.177 11.73c-.05 3.929-.139 9.068-.198 11.42l-.106 4.278h-25.36Zm33.934 62.662c.06-2.79.15-8.96.2-13.714s.168-14.676.263-22.049.254-20.629.353-29.457c.372-33.249.305-30.572.94-37.35.316-3.371.65-6.205.744-6.298.676-.677 5.647-1.436 8.721-1.333 1.698.057 9.318.22 16.933.363a8246 8246 0 0 1 17.913.35c2.237.05 7.158.14 10.937.199 7.24.114 8.055.222 11.217 1.488.566.227.625 1.268.76 13.389.077 6.882.321 22.39.533 33.867.186 10.074.44 25.285.53 31.75.052 3.735.13 8.22.175 9.965.044 1.747.124 7.184.178 12.083.054 4.9.143 9.563.199 10.363l.1 1.455H67.477Zm80.895 4.82c0-.14-.197-9.843-.437-21.564-.565-27.619-.76-37.153-.981-48.035-.1-4.899-.238-10.535-.308-12.523-.07-1.99-.103-5.05-.075-6.801l.052-3.185 1.613-1.842a2233 2233 0 0 1 9.774-11.049c1.399-1.57 2.68-2.896 2.847-2.944s1.89-.375 3.83-.725 3.707-.68 3.925-.735c.397-.098.397-.098.397 54.778v54.876H158.8c-8.826 0-10.318-.036-10.318-.252" style="display:inline;fill:#929292" transform="translate(-33.653 -163.219)"/><path d="M33.653 295.598v-3.086h6.769c7.752 0 7.278-.104 7.103 1.544-.06.557-.12 1.827-.133 2.821l-.025 1.808H33.653Zm16.13 2.67c-.122-.485-.034-5.521.097-5.614.177-.124 8.562.131 8.776.267.161.103.22.895.22 2.952v2.812h-4.494c-4.495 0-4.495 0-4.6-.418m26.291.24c-.296-.478.31-.528 6.427-.528 6.249 0 7.108.076 6.595.59-.196.195-12.9.136-13.022-.061m14.3-.117c-.189-.493-.042-.502 6.688-.411 6.033.081 6.529.111 6.583.397.09.465-13.092.48-13.27.014m14.32.074c-.202-.548.112-.573 6.608-.521 6.477.052 6.827.083 6.838.609.005.247-13.355.16-13.446-.088m14.33-.135c0-.518 13.273-.472 13.373.047.055.29-.356.308-6.657.308-6.611 0-6.715-.006-6.715-.355m29.81-.516c0-1.062-.019-1.05 1.723-1.132.776-.037 1.498-.12 1.606-.187.107-.067 1.05-.193 2.093-.28 1.044-.087 2.137-.204 2.428-.26s1.045-.131 1.675-.168 1.892-.154 2.803-.261c2.12-.249 2.136-.236 2.136 1.681v1.478h-1.925c-1.368 0-1.956-.064-2.029-.22-.082-.177-.123-.177-.205 0-.073.154-.623.22-1.838.22-1.222 0-1.76-.065-1.823-.22-.072-.177-.092-.177-.103 0-.01.16-.471.22-1.675.22-1.164 0-1.688-.066-1.75-.22-.071-.177-.092-.177-.103 0-.01.158-.439.22-1.513.22-1.5 0-1.5 0-1.5-.871m15.28.563c-.157-.543-.194-2.594-.05-2.823.099-.159.82-.22 2.596-.22h2.46v3.351h-2.458c-2.19 0-2.468-.034-2.547-.308m-73.628-3.025c-.06-.155-.113-1.103-.117-2.106l-.007-1.823 6.52.023c7.449.026 6.79-.16 6.794 1.915.004 2.342.557 2.148-5.954 2.091-3.078-.027-5.94.003-6.362.067-.61.093-.787.06-.874-.167m14.262.002c-.236-.44-.247-3.666-.014-3.81.328-.203 12.926-.096 13.175.112.167.138.234.72.234 2.02v1.826l-6.218-.038c-3.42-.02-6.391.024-6.604.101-.293.106-.43.055-.573-.21m30.593.17-1.588-.102-.093-1.675c-.127-2.272-.27-2.117 1.943-2.117 2.363 0 2.324-.039 2.258 2.23-.059 2.012.2 1.84-2.52 1.665m-66.324-.397c-.056-.226-.08-1.085-.05-1.91l.052-1.499 2.418-.154c3.166-.201 2.961-.333 2.961 1.9 0 2.185.277 1.994-2.947 2.04-2.305.033-2.332.029-2.434-.377m7.36.164c-.242-.29-.323-3.447-.095-3.675.1-.1 2.692-.148 6.506-.12l6.339.046v3.88l-6.278.052c-5.056.042-6.316.006-6.473-.183m42.548-.011c-.05-.13-.067-1.024-.04-1.987l.052-1.751 6.438-.023c7.954-.029 7.078-.281 7.017 2.021l-.05 1.882-6.663.047c-5.422.037-6.68.002-6.754-.19m29.904-1.987c-.1-.265-.16-1.279-.133-2.252.05-1.77.05-1.77 1.263-2.076.667-.168 1.322-.263 1.457-.212a.53.53 0 0 0 .463-.079c.19-.15.896-.3 3.04-.641a27 27 0 0 0 1.412-.286 34 34 0 0 1 1.852-.355 77 77 0 0 0 3.997-.789c.776-.176.867.097.925 2.778.038 1.754-.003 2.266-.188 2.328-.496.168-7.405.985-7.553.893a.187.187 0 0 0-.255.065c-.103.168-2.407.484-2.99.411-.183-.022-.422.029-.53.114s-.514.209-.902.273-.924.16-1.19.213c-.407.08-.514.019-.668-.385m15.19-1.886c-.224-.592-.307-4.497-.099-4.69.095-.086 1.303-.208 2.686-.27l2.513-.114v2.63c0 3.084.275 2.796-2.7 2.832-2.202.027-2.244.02-2.4-.388m-30.365-2.717c-.254-.668-.211-3.404.055-3.505.121-.046 1.054-.023 2.073.05l1.852.133.112 1.588c.152 2.16.199 2.111-2.051 2.142-1.842.026-1.88.018-2.041-.408m-64.61-.095c-.202-.753-.126-3.086.107-3.273.121-.097 1.332-.206 2.69-.242l2.47-.065.05 1.749c.064 2.187.182 2.095-2.759 2.171-2.43.064-2.451.06-2.559-.34m7.295.125c-.19-.23-.286-3.297-.112-3.578.14-.227 12.132-.33 12.709-.108.363.14.416 3.49.059 3.716-.334.21-12.48.182-12.656-.03m14.21.049c-.138-.448-.273-3.29-.168-3.563.217-.566 12.908-.398 13.126.174.253.667.218 2.995-.049 3.206-.361.286-12.823.462-12.909.183m14.238-.024c-.128-.207-.222-3.124-.113-3.51.11-.39 12.693-.484 13.08-.096.297.297.29 3.422-.008 3.613-.299.19-12.841.184-12.96-.007zm14.12-.038c-.04-.104-.05-.977-.021-1.94l.05-1.752 6.615.065c4.583.044 6.652.124 6.737.259.226.358.145 3.247-.095 3.447-.313.259-13.185.183-13.286-.079m-65.234-.497-3.704-.196-.046-1.058c-.095-2.23.204-5.65.488-5.584.145.034 2.128.168 4.408.3 2.28.13 4.165.241 4.19.247.102.023-.002 5.605-.113 6.007-.15.545-.22.549-5.223.284m-13.538-.24-6.482-.049v-3.249c0-2.94.029-3.258.308-3.346.375-.118 6.384-.107 10.667.02l3.126.094-.105 3.11c-.105 3.149-.225 3.65-.845 3.51-.103-.023-3.104-.063-6.67-.09m108.437-3.421c-.243-2.965-.112-3.166 2.247-3.45.46-.056.838-.164.838-.24 0-.19 1.872-.738 2.69-.788.364-.022.762-.123.884-.225.123-.101.936-.361 1.808-.577s1.744-.456 1.938-.533c.616-.244 3.077-.864 3.432-.864.389 0 .637 4.413.272 4.854-.176.212-2.864.836-3.52.817-.19-.006-.427.052-.529.13-.387.293-3.302.785-3.429.579-.083-.135-.22-.086-.422.15-.164.192-.488.349-.72.349s-.72.125-1.087.278c-.366.153-.828.236-1.026.184s-.466-.007-.594.099-.53.253-.891.327c-.362.074-.909.19-1.214.259-.556.125-.556.125-.677-1.35m15.324-1.693c-.242-.165-.516-4.905-.292-5.044.086-.053 1.362-.152 2.836-.22l2.68-.125v2.583c0 1.421-.06 2.594-.133 2.607s-.794.044-1.604.07c-.809.026-1.88.095-2.38.155-.501.06-1 .048-1.107-.026m-28.996-.21c-1.323-.1-1.323-.1-1.417-1.776-.051-.921-.06-1.78-.02-1.906.11-.353 3.737-.098 4.038.283.291.369.299 3.063.01 3.352-.218.217-.347.22-2.611.047m-65.664-.118c-.071-.071-.13-.944-.13-1.94 0-2.046-.263-1.888 3.473-2.08 1.991-.102 1.964-.132 1.86 2.044-.095 1.986.08 1.854-2.51 1.895-.825.014-1.739.066-2.031.118-.293.05-.59.034-.662-.037m35.486-.177c-.097-.117-.152-1.013-.123-2.032l.05-1.823 6.435.052c7.405.06 6.882-.078 6.882 1.826 0 2.287.485 2.11-5.61 2.033-2.88-.037-5.738-.017-6.349.043-.763.076-1.166.045-1.285-.1m-28.405-.184c-.092-.112-.145-.985-.117-1.94l.05-1.738 6.241-.047c4.46-.033 6.31.011 6.483.154.28.233.34 3.078.074 3.499-.212.335-12.455.404-12.73.072m14.097-1.45c-.085-2.46-.818-2.22 6.59-2.162 7.265.056 6.741-.078 6.82 1.75.094 2.209.658 2.039-6.903 2.078l-6.448.034zm28.618 1.485c-.27-.326-.445-2.146-.287-2.99.12-.635.12-.635 6.594-.632 3.56 0 6.576.067 6.701.146.167.106.214.613.177 1.894l-.051 1.75-6.46.046c-5.516.039-6.49.008-6.674-.214m29.386-5.863c-.065-1.133-.057-2.122.017-2.196.248-.248 2.425-.988 2.66-.904.127.046.325-.035.44-.18.211-.264 2.45-1.072 2.944-1.061.145.003.386-.1.535-.228.337-.292 2.77-1.128 3.287-1.13.21 0 .408-.064.44-.141.094-.222 3.111-1.303 3.454-1.237.433.083.475 4.695.045 4.912-.986.497-3.09 1.019-3.324.825-.202-.168-.304-.131-.514.185-.144.217-.399.394-.566.394s-.77.16-1.341.357c-.57.197-1.159.338-1.307.315s-.467.089-.71.248c-.242.16-.996.425-1.675.59-.679.166-1.393.37-1.587.454-.503.218-2.413.858-2.559.858-.067 0-.175-.927-.24-2.06m-91.168.906c-.053-.053-1.58-.132-3.393-.174s-3.37-.122-3.46-.177c-.204-.127-.22-6.376-.016-6.502.192-.118 8.413.528 8.66.681.24.15.255 5.189.016 5.817-.165.432-1.472.69-1.807.355m-17.203-.564-6.394-.049v-6.522h6.945c5.65 0 6.983.045 7.146.24.245.296.064 5.905-.202 6.242-.096.122-.383.202-.638.18-.255-.024-3.34-.065-6.857-.091m95.225-.415c-1.987-.178-1.73.092-1.883-1.985-.155-2.108-.257-2.024 2.163-1.794l1.905.18v1.85c0 2.133.21 1.965-2.185 1.75m-66.05-.418c-.064-.164-.115-.969-.115-1.788 0-1.837-.017-1.827 3.156-1.882l2.224-.04.05 1.59c.07 2.197.13 2.147-2.802 2.297-2.16.11-2.41.092-2.514-.177m27.225.087-5.909-.092v-3.827l6.35.026c3.65.014 6.418.095 6.513.19.762.76.15 3.951-.736 3.835-.17-.022-2.968-.082-6.218-.132m14.503.04c-6.993-.056-6.443.152-6.352-2.41l.051-1.426H117.7l.102 1.675c.109 1.776-.013 2.32-.505 2.252-.167-.023-3.024-.064-6.35-.09m7.89-.123c-.259-.258-.213-3.374.053-3.56.12-.084 3.137-.129 6.702-.1l6.483.055v1.744c0 1.2-.069 1.787-.22 1.886-.317.204-12.811.18-13.018-.025m-42.383-.054c-.043-.072-.107-.925-.142-1.895l-.065-1.764 6.34-.047c7.179-.052 6.647-.18 6.762 1.62.148 2.306.63 2.148-6.636 2.185-3.4.018-6.216-.027-6.259-.099m87.114-1.835c-.123-.358-.41-4.618-.327-4.842.074-.198 5.216-.618 5.655-.462.162.057.22.74.22 2.596v2.517l-1.896.114a65 65 0 0 0-2.733.214c-.613.073-.86.037-.919-.137m-15.299-4.716-.044-2.09c-.013-.56 1.23-1.365 2.414-1.566.364-.061.662-.186.662-.276 0-.193 2.536-1.378 2.95-1.378.157 0 .41-.11.564-.246.348-.307 2.776-1.342 3.15-1.342.151 0 .4-.112.554-.25.358-.322 3.069-1.514 3.443-1.514.251 0 .28.29.236 2.424l-.05 2.424-1.655.658c-.91.363-1.73.613-1.82.558-.09-.056-.258.019-.372.167-.115.148-.606.388-1.091.534s-1.146.371-1.47.499c-.521.207-.613.198-.815-.079-.207-.283-.237-.263-.335.225-.059.295-.247.581-.42.637-.17.055-.708.263-1.193.462-.485.198-1.1.354-1.367.347s-.485.062-.485.154c0 .17-1.671.97-2.415 1.157-.402.1-.408.08-.44-1.505m-13.152.642c-1.988-.186-1.808.126-1.885-3.262-.01-.427.062-.492.595-.543.814-.078 3.536.318 3.552.517.007.087.014.753.014 1.48 0 1.967-.008 2.031-.247 2.003-.122-.014-1.034-.102-2.029-.195m-65.722-.265c-.146-.236-.179-3.39-.037-3.533.147-.148 4.67-.535 4.993-.427.157.053.22.578.22 1.807 0 2.024.193 1.86-2.38 2.02-.97.061-1.975.15-2.233.199-.257.048-.51.019-.563-.066m21.132-.307c-.125-.43-.218-3.391-.11-3.54.071-.1 2.657-.13 6.555-.076 7.29.1 6.635-.109 6.683 2.127.037 1.74.468 1.636-6.768 1.651-4.066.01-6.327-.049-6.36-.162m14.1.01c-.046-.117-.06-.961-.032-1.876l.051-1.662 6.262-.005c3.444-.003 6.4.059 6.57.138.4.187.462 3.137.072 3.46-.352.293-12.811.24-12.924-.054zm14.256.106c-.167-.107-.214-.615-.177-1.895l.051-1.75 6.527.058c3.59.032 6.589.118 6.665.193.077.074.117.881.088 1.794l-.05 1.66-6.439.043c-3.54.023-6.54-.023-6.665-.103m-42.429-.16c-.044-.073-.108-.927-.143-1.897l-.064-1.764 4.146-.004c2.28-.002 5.177.038 6.438.089l2.293.092.051 1.66c.036 1.176-.013 1.7-.167 1.796-.283.175-12.45.202-12.554.028m-21.118-3.045c-.442-.074-1.732-.194-2.867-.264l-2.063-.13v-3.143c0-1.729.068-3.185.15-3.236.184-.114 8.407.703 8.662.86.272.17.247 5.605-.027 5.88-.237.236-2.54.256-3.855.033m-18.82-.658-2.866-.055v-6.34h7.22c7.77 0 7.87.011 7.31.916-.072.117-.177 1.408-.232 2.867l-.1 2.654-4.232.006c-2.329.003-5.524-.018-7.1-.048m126.716-.53c-.047-.17-.112-1.302-.144-2.514l-.057-2.205 1.146-.118 2.813-.29c2.278-.235 2.126-.409 2.126 2.436s.242 2.576-2.53 2.821c-2.836.252-3.25.235-3.354-.13m-26.77-1.361c-.053-.053-.713-.128-1.467-.168-1.719-.09-1.76-.137-1.836-2.051-.074-1.908-.164-1.847 2.28-1.544l1.839.228v1.764c0 1.73-.27 2.317-.816 1.771m-66.966-.48c-.138-.137-.216-.78-.216-1.77 0-1.878-.12-1.792 2.898-2.072 2.618-.244 2.553-.294 2.437 1.886-.1 1.88.142 1.717-2.815 1.896-.894.054-1.73.138-1.857.187-.128.05-.329-.008-.447-.126m47.721.11c-.052-.054-2.863-.143-6.245-.2-7.035-.117-6.432.08-6.37-2.083l.044-1.587 6.33-.047c7.408-.054 6.811-.228 6.811 1.987 0 1.514-.224 2.274-.57 1.93m-14.289-.179c-.042-.042-2.847-.096-6.234-.12l-6.159-.043v-3.705l1.543.004c8.664.025 11.388.097 11.456.305.319.966-.193 3.972-.606 3.559m15.737-.351c-.245-.643-.22-3.025.032-3.181.315-.195 13.09-.074 13.213.125.163.263-.032 3.04-.231 3.288-.41.51-12.816.29-13.014-.232m29.575.317c-.113-.183-.215-3.882-.11-3.977.32-.287 2.539-1.332 2.664-1.254.086.053.204-.026.261-.176s.791-.603 1.63-1.008c.84-.405 1.645-.801 1.79-.881s.909-.504 1.695-.943c.785-.439 1.55-.798 1.698-.798s.366-.117.485-.26c.29-.35 3.071-1.857 3.426-1.857.244 0 .282.318.282 2.378v2.379l-1.687.81c-1.242.595-1.746.76-1.912.62-.17-.14-.273-.087-.41.209-.101.217-.451.526-.778.687-1.625.798-2.298 1.058-2.522.971a.27.27 0 0 0-.345.16c-.15.394-2.957 1.684-3.208 1.476-.145-.12-.234-.073-.294.156-.113.432-2.487 1.597-2.665 1.308m-71.727-.306c-.19-.23-.288-3.118-.115-3.398.167-.27 12.01-.283 12.51-.015.277.148.31.385.266 1.88l-.05 1.71h-6.233c-3.94 0-6.286-.065-6.378-.177m58.894-5.457c-.043-.043-.49-.097-.996-.12-1.236-.056-1.214-.027-1.345-1.831-.162-2.228-.017-2.29 3.7-1.577.368.07.79 2.978.501 3.447-.098.158-1.713.228-1.86.08m-16.736-.624c-.11-.207-.17-1.048-.14-1.985l.05-1.627 6.526.057c3.59.032 6.586.094 6.659.139.321.197.145 3.393-.197 3.576-.182.097-.37.136-.419.088-.124-.124-11.922-.115-12.123.01-.09.055-.25-.06-.356-.258m-49.109-.025c-.171-.54-.27-2.905-.13-3.123.157-.246 4.848-.829 5.154-.64.185.114.19 2.414.006 3.072-.146.524-.59.638-3.148.813-1.462.1-1.819.076-1.882-.122m20.973-.046c-.162-.535-.216-3.223-.07-3.495.175-.328 12.564-.307 12.91.021.076.073.116.88.087 1.793l-.05 1.66-5.204.031c-2.862.018-5.746.067-6.408.11-.8.052-1.225.011-1.265-.12m14.103-.022c-.132-.442-.2-3.244-.085-3.431.188-.305 12.71-.264 12.989.042.128.14.166.805.111 1.928l-.084 1.713-6.44-.038c-4.107-.024-6.458-.101-6.491-.214m-25.914-.05c-2.492-.059-2.382.038-2.386-2.11l-.002-1.632h6.159c3.387 0 6.285.048 6.438.107.494.19.402 3.358-.102 3.518-.406.129-6.595.2-10.107.117m84.324-.06c-.358-1.132-.274-4.917.109-4.928.221-.006 1.554-.113 2.96-.239 3.286-.293 3-.511 3 2.285 0 2.66.12 2.562-3.437 2.816-.87.062-1.802.157-2.07.21q-.486.098-.562-.144m-105.145-.856c-.194-.085-.829-.167-1.411-.18a18 18 0 0 1-2.029-.183 41 41 0 0 0-2.204-.276c-.68-.065-1.334-.196-1.456-.292-.32-.252-.315-6.103.005-6.226.252-.096 8.345.914 8.605 1.075.188.116.196 5.048.009 5.726-.133.481-.853.65-1.519.356m90.149.02c-.101-.164-.175-3.9-.079-3.967 1.097-.75 2.448-1.525 2.66-1.525.153 0 .319-.107.369-.239.05-.13.753-.614 1.562-1.072 1.725-.978 1.59-.896 2.808-1.705a26 26 0 0 1 1.75-1.058c.436-.233.832-.474.881-.535.195-.243 3.38-2.094 3.605-2.094.32 0 .357 4.243.042 4.642-.353.446-3.093 1.932-3.368 1.826-.152-.058-.3.024-.358.2-.12.37-2.988 1.886-3.255 1.721-.106-.065-.208-.57-.226-1.123-.032-1.004-.032-1.004-.09-.034-.09 1.546-.175 1.73-.982 2.14-.411.208-.936.526-1.168.707-.909.71-1.192.418-1.31-1.347-.04-.604-.069-.438-.092.529-.02.776-.093 1.499-.164 1.606-.207.312-2.489 1.483-2.585 1.327m-114.18-1.201c-.466-.188-.298-6.21.176-6.314.219-.048 3.533-.03 7.365.041 6.967.128 6.967.128 6.928.657-.022.291-.092 1.601-.155 2.91s-.194 2.481-.29 2.602c-.176.22-13.49.32-14.024.104m101.047-3.506c-1.966-.27-1.954-.256-1.958-2.232-.003-1.855-.129-1.769 2.067-1.408 2.23.367 2.19.324 2.127 2.25-.06 1.82.114 1.712-2.236 1.39m-65.371-.807c-.059-.234-.083-1.02-.054-1.746l.053-1.32 2.38-.304c2.999-.382 2.823-.464 2.823 1.323 0 2.128.105 2.06-3.65 2.357-1.422.112-1.447.107-1.552-.31m43.598.258c-.04-.04-1.991-.071-4.336-.068l-4.262.005.05-1.786.05-1.785 4.057-.01a555 555 0 0 1 6.489.022l2.431.032-.05 1.808-.05 1.808-2.153.023c-1.184.013-2.185-.01-2.226-.05zm5.42-.132c-.047-.121-.062-.957-.034-1.856l.05-1.636 6.313.025c7.608.031 6.853-.183 6.79 1.927l-.05 1.699-6.492.03c-5.056.025-6.512-.017-6.578-.189m-28.031-.11c-.092-.148-.162-3.507-.075-3.59.042-.04 2.974-.022 6.515.04l6.438.115.052 1.56c.032.976-.024 1.651-.149 1.802-.2.242-12.632.314-12.781.074m-13.78-.13c-.117-.076-.226-.822-.264-1.806l-.065-1.676 5.997-.049c7.54-.062 6.816-.261 6.753 1.862l-.05 1.715-6.086.043c-3.347.023-6.175-.016-6.285-.088m71.138-1.924c-.065-.064-.115-.957-.112-1.984.006-1.867.006-1.867 1.14-2.631.623-.42 1.257-.782 1.41-.805.15-.022.392-.208.536-.413.334-.476 2.486-1.987 2.831-1.987.144 0 .31-.124.368-.275.11-.289 3.092-2.37 3.395-2.37.096 0 .238-.105.315-.232.244-.4 3.393-2.457 3.625-2.368.18.07.283 3.283.147 4.588-.008.076-.228.218-.489.317-.26.1-.98.541-1.596.982-.642.457-1.235.757-1.384.7-.165-.063-.317.046-.413.299-.164.433-3.09 2.321-3.349 2.162-.085-.053-.198.017-.251.155-.139.36-2.682 2.04-3.089 2.04-.188 0-.388.119-.444.265-.095.248-2.142 1.675-2.403 1.675a.4.4 0 0 1-.237-.118m14.972-.221c-.125-.202-.43-4.465-.332-4.637.092-.163 1.022-.29 5.571-.765l1.014-.105v2.461c0 2.784-.005 2.79-2.698 2.844-.66.013-1.603.1-2.097.194-1.115.212-1.331.213-1.458.007zM58.32 244.977c-.057-.057-.848-.183-1.758-.282a40 40 0 0 1-2.937-.437c-.706-.142-1.474-.21-1.707-.152-1.136.285-1.169.189-1.116-3.245.048-3.118.048-3.118.578-3.098.95.035 5.278.604 5.82.765.292.086.927.21 1.412.276 1.14.155 1.142.158 1.133 2.643-.01 3.02-.12 3.514-.789 3.58-.293.03-.58.006-.636-.05m76.964-.273c-.226-.093-.765-.182-1.2-.198-.976-.037-1.05-.166-1.173-2.056-.116-1.776-.168-1.741 2.015-1.346 2.156.39 2.114.346 2.053 2.178-.054 1.628-.43 1.943-1.695 1.422m-6.236-.436c-.063-.063-2.466-.126-5.34-.14l-5.224-.024.05-1.77.05-1.769 6.438.065c3.54.036 6.488.115 6.55.177.317.316-.11 3.462-.465 3.421-.67-.077-1.06-.066-1.501.044-.244.06-.495.059-.558-.004m-59.412-1.282c0-.685-.039-1.351-.086-1.48-.196-.532.247-.707 2.533-1.007 2.837-.372 2.694-.458 2.631 1.58-.057 1.868.386 1.622-3.623 2.011-1.455.142-1.455.142-1.455-1.104m36.953 1.019-1.94-.089-.122-1.41c-.195-2.254-.913-2.03 6.474-2.03 3.528 0 6.454.064 6.502.141s.042.89-.013 1.808l-.1 1.668h-4.43c-2.437 0-5.303-.04-6.37-.088m-19.535-.104c-.057-.056-2.41-.108-5.23-.114-4.545-.01-5.134-.043-5.206-.293-.044-.156-.105-.958-.135-1.782l-.056-1.5 5.203-.014c7.942-.022 7.487-.134 7.548 1.852.037 1.21-.01 1.7-.176 1.805-.261.165-1.793.202-1.948.046m4.063-.04c-.58-.067-.714-.576-.633-2.403l.054-1.224 5.38.05c6.702.061 7.501.134 7.484.678-.007.218-.027.986-.044 1.707l-.032 1.31-5.865-.032c-3.225-.017-6.08-.056-6.344-.086m-56.627-.339c-.837-.066-.837-.066-.837-3.143 0-2.338.053-3.08.22-3.088 2.013-.102 14.375.074 14.508.206.22.218.119 5.408-.113 5.846-.157.296-10.582.431-13.778.18m113.224-3.618c-.312-2.597-.243-2.834 1.139-3.915.689-.54 1.363-.98 1.499-.98a.25.25 0 0 0 .246-.248c0-.221.45-.602 2.36-2.001.297-.218.642-.397.766-.397s.226-.071.226-.159c0-.212 3.022-2.663 3.284-2.663.113 0 .245-.102.292-.226.113-.293 3.354-2.773 3.625-2.773.148 0 .207.647.207 2.259 0 2.258 0 2.258-1.07 3.042a45 45 0 0 0-1.655 1.27c-.74.614-.935.42-1.024-1.02-.057-.928-.069-.881-.098.397-.033 1.45-.033 1.45-.83 2.028-.44.319-1.091.802-1.45 1.075-.366.278-.79.46-.967.413-.217-.057-.346.04-.413.306-.056.22-.593.725-1.24 1.164-.629.426-1.225.874-1.326.995-.382.46-.686.051-.718-.968-.03-.95-.037-.935-.133.325-.1 1.32-.1 1.32-1.229 2.16-1.392 1.039-1.356 1.04-1.49-.084m14.918-.714c-.207-.262-.426-4.492-.24-4.607.074-.046 1.32-.21 2.77-.366s2.773-.325 2.943-.375c.918-.273 1.014-.036 1.014 2.488 0 2.707.289 2.39-2.47 2.717-2.799.331-3.84.369-4.017.143m-26.85-.687a20 20 0 0 0-1.676-.256c-.512-.053-.974-.21-1.102-.375-.336-.433-.298-3.02.045-3.153.445-.17 3.634.523 3.769.819.15.33.039 3.183-.124 3.153-.065-.012-.476-.097-.912-.188m-65.853-.628c-.044-.073-.108-.845-.142-1.717l-.063-1.585 2.359-.322c2.755-.376 2.942-.345 2.751.452-.074.314-.183 1.047-.242 1.629-.11 1.102-.593 1.292-3.41 1.338-.265.004-.527.082-.583.173-.122.197-.557.218-.67.032m46.562.01c-.103-.105-3.177-.234-4.963-.21l-3.704.037-3.175.03-.109-1.587c-.06-.873-.066-1.7-.014-1.836.118-.31 12.721-.147 12.915.167.55.89-.326 4.022-.95 3.398m6.855.032c-.097-.043-1.208-.1-2.47-.126l-2.292-.049-.14-1.57c-.083-.922-.075-1.637.02-1.732.182-.182 7.613-.198 10.912-.024l2.15.113-.049 1.579c-.06 1.982-.482 2.276-2.424 1.694-.536-.16-.776-.156-1.107.021-.273.146-.662.182-1.1.102a8.8 8.8 0 0 0-2.706-.027c-.34.052-.697.061-.794.019m-21.322-.213c-.07-.07-2.683-.133-5.807-.14l-5.679-.014-.05-1.825-.051-1.826 6.4.13c3.52.07 6.44.168 6.488.215.18.178-.033 3.322-.235 3.45-.263.168-.903.174-1.066.01m-15.262-.212c-.136-.086-1.684-.168-3.44-.181-1.755-.014-3.39-.028-3.632-.033s-.917.043-1.5.105c-.622.067-1.166.04-1.322-.066-.291-.197-.573-2.976-.33-3.26.215-.253 12.366-.132 12.628.125.17.168.161.395-.044 1.077-.143.475-.26 1.126-.26 1.447 0 .83-1.276 1.307-2.1.786m-29.209-3.39c-.97-.19-2.438-.411-3.263-.492-3.392-.334-3.346-.284-3.346-3.629 0-3.374-.13-3.204 2.132-2.768 1.007.195 2.919.531 4.248.748 1.328.217 2.447.483 2.486.59.146.409-.146 5.813-.316 5.853-.097.024-.97-.113-1.94-.302m89.979-2.54c-.127-1.95.601-3.148 2.38-3.918.28-.122.51-.325.51-.452 0-.288 2.754-2.59 3.098-2.59.14 0 .253-.081.253-.18 0-.2 1.796-1.927 2.686-2.584.317-.234 1.171-.97 1.9-1.636 2.944-2.694 2.787-2.704 2.783.176-.003 2.302-.003 2.302-.616 2.778-.336.261-1.094.855-1.683 1.319-1.247.98-1.326.948-1.41-.58-.063-1.127-.064-1.123-.098.29-.039 1.656-.057 1.686-1.878 3.126-1.4 1.108-1.503 1.106-1.52-.03-.024-1.603-.315-1.605-.328-.002-.012 1.53-.012 1.53-1.333 2.602-1.523 1.234-1.67 1.277-1.698.497-.017-.448-.053-.38-.166.31-.108.662-.265.969-.629 1.234-.266.194-.777.61-1.135.926-.935.824-.984.768-1.116-1.286m-112.865 1.2-1.014-.064v-6.195l7.54.1 7.54.1-.044 1.198c-.141 3.798-.282 4.704-.749 4.833-.444.123-11.387.146-13.273.027m100.41-.521c-2.39-.465-2.187-.284-2.337-2.079-.166-1.987-.18-1.976 1.84-1.59 2.391.455 2.282.345 2.222 2.243-.057 1.835.025 1.767-1.726 1.426m-65.28-.804a145 145 0 0 1-.086-1.673c-.083-1.683-.355-1.478 2.525-1.9 2.903-.424 2.692-.518 2.692 1.202 0 1.966-.018 1.982-2.463 2.316-2.44.333-2.648.337-2.668.055m47.073.123c-.04-.04-2.79-.096-6.112-.124-5.099-.043-6.064-.091-6.203-.311-.183-.289-.232-2.63-.065-3.066.119-.308 5.453-.395 10.434-.169l2.513.114v1.72c0 1.592-.191 2.212-.567 1.836m1.68-.17c-.186-.136-.233-.578-.194-1.83l.051-1.653 4.498.046c2.474.025 5.411.095 6.527.155l2.028.11v3.351h-6.332c-4.011 0-6.423-.065-6.578-.179m-16.494-.003c-.043-.043-2.652-.098-5.798-.124l-5.72-.046v-3.647l5.027.035c8.225.058 7.85-.032 7.85 1.878 0 .89-.04 1.652-.089 1.694-.14.123-1.185.295-1.27.21m-24.68-.39c-.637-.063-.637-.063-.73-1.685-.052-.893-.057-1.684-.011-1.76.12-.2 12.272.062 12.536.27.317.251.3 2.845-.021 3.112-.226.187-9.974.239-11.773.062m84.96-.442c-.037-.12-.118-1.182-.18-2.357l-.11-2.137 1.728-.213a66 66 0 0 0 2.611-.37c.807-.143 1.966-.23 2.514-.187.164.013.22.618.22 2.39 0 2.736.425 2.367-3.256 2.83-2.578.324-3.436.335-3.526.044m-26.819-4.401a57 57 0 0 0-1.676-.379c-.97-.203-.97-.203-1.125-1.759-.192-1.933-.16-1.97 1.403-1.613 2.817.642 2.564.417 2.507 2.238-.055 1.749-.07 1.77-1.109 1.513m11.825-1.86c-.13-1.897-.13-1.897 1.155-3.087.706-.655 1.388-1.19 1.516-1.19a.234.234 0 0 0 .233-.235c0-.128.654-.851 1.455-1.606.8-.755 2.21-2.12 3.13-3.032.922-.913 1.777-1.659 1.9-1.657.124.002.314-.176.423-.394.265-.532 3.261-3.307 3.57-3.307.63 0 .258 4.48-.418 5.046-.335.28-1 .887-1.477 1.348-.539.52-1.026.838-1.286.838-.3 0-.418.099-.418.351 0 .193-.255.57-.567.838-.312.267-.974.863-1.472 1.324-1.2 1.11-1.313 1.084-1.313-.309 0-.646-.077-1.146-.176-1.146-.104 0-.176.61-.176 1.478 0 1.477 0 1.477-1.326 2.663-1.547 1.385-1.802 1.393-1.895.057-.056-.793-.07-.735-.1.388-.034 1.323-.034 1.323-1.254 2.425-.671.607-1.255 1.103-1.297 1.103s-.136-.853-.207-1.896m-77.412 1.073c-.113-.113-.174-3.234-.064-3.234.03 0 .919-.159 1.975-.353 3.239-.595 3.108-.654 3.049 1.367-.05 1.72-.05 1.72-1.452 1.847-.77.07-1.636.209-1.922.309-.592.206-1.41.239-1.586.064m48.512.005c-.067-.068-.123-.917-.123-1.886v-1.763l4.895.116c2.692.064 5.632.116 6.533.117h1.638l-.05 1.72-.051 1.72-2.117-.008c-1.164-.004-3.907-.028-6.096-.052s-4.098.002-4.243.058c-.144.055-.318.045-.386-.022m-11.938-.241c-1.85-.088-1.85-.088-1.975-.794-.154-.873-.177-2.09-.046-2.432.107-.279 12.526-.271 12.805.008.073.073.085.864.027 1.758l-.106 1.626-4.428-.039c-2.435-.021-5.26-.078-6.277-.127m-18.588-.123c-.068-.068-2.557-.147-5.532-.176-6.211-.06-5.643.13-5.72-1.906l-.06-1.587 6.173.058c7.013.066 6.46-.083 6.548 1.767.08 1.663-.644 2.61-1.409 1.844m3.304.002c-.578-.078-1.138-3.246-.63-3.562.351-.217 12.448.143 12.662.377.134.148.165.708.093 1.719l-.107 1.499-2.47-.02c-1.358-.01-3.693-.03-5.19-.046-1.495-.015-2.964.003-3.262.04a5 5 0 0 1-1.096-.007m-33.49-1.396a59 59 0 0 1-2.117-.407c-.388-.087-1.46-.255-2.381-.373-.922-.117-1.775-.241-1.896-.275-.236-.067-.326-5.043-.107-5.862.124-.461.104-.462 3.237.144.922.178 2.498.47 3.501.647 2.216.392 2.088.16 2.003 3.63-.077 3.202.177 2.919-2.24 2.496m104.435-1.337c-.067-.212-.285-2.824-.342-4.109-.024-.524-.024-.524 2.093-.838 1.164-.173 2.707-.424 3.43-.56 1.859-.346 1.773-.46 1.773 2.364 0 2.409-.004 2.432-.397 2.418-.218-.008-.754.042-1.19.11-.437.07-1.667.246-2.734.394s-2.08.31-2.25.36c-.171.052-.343-.01-.383-.14m-116.944-.1c-.073-.073-1.02-.138-2.102-.144a870 870 0 0 1-5.718-.066l-3.748-.053v-6.166l7.54.127c4.148.07 7.596.16 7.664.199.174.1-.049 5.55-.242 5.926-.167.325-3.094.477-3.394.176m90.909-1.991c-.143-.09-.474-.166-.735-.168-.26 0-.523-.082-.583-.179s-.447-.176-.86-.176c-1.131 0-1.291-.218-1.398-1.908-.113-1.798-.127-1.789 2.038-1.262 2.109.513 2.072.476 2.069 2.09-.003 1.484-.127 1.858-.531 1.603m-7.29-1.017c-.535-.215-.75-.23-1.012-.066-.417.26-1.19.264-2.2.01-.6-.151-.844-.147-1.043.018-.195.161-.827.181-2.513.079a115 115 0 0 0-2.959-.15c-.706-.014-.706-.014-.828-1.425-.067-.776-.087-1.533-.044-1.681.1-.348 12.553-.285 12.881.065.384.41.095 3.106-.342 3.193-1.072.215-1.313.21-1.94-.042zm-58.907-1.384c-.133-1.889-.328-1.71 2.39-2.182 2.465-.428 2.891-.392 2.697.226-.069.217-.177.95-.24 1.63-.112 1.176-.138 1.233-.558 1.21-.515-.026-2.567.283-3.721.562-.458.11-.458.11-.568-1.446m45.917 1.36c-.243-.073-2.85-.126-5.794-.116-6.214.02-5.714.2-5.635-2.035l.052-1.432 6.256.032c7.215.037 6.705-.104 6.58 1.827-.124 1.892-.285 2.082-1.46 1.725m-13.92-.174c-.137-.087-1.125-.131-2.195-.098s-2.07-.005-2.22-.085-1.333-.076-2.628.01c-1.513.1-2.47.092-2.678-.02-.215-.114-.486-.112-.799.007-.82.312-.98-.007-.922-1.839.058-1.873-.555-1.751 7.811-1.548l4.939.12.051 1.56c.063 1.919-.368 2.52-1.359 1.893m-17.197-.323c-.026-.025-1.768-.058-3.87-.073-4.41-.033-4.114.102-4.197-1.91l-.063-1.5 6.174.06c6.752.064 6.886.085 6.47 1-.115.25-.208.846-.208 1.323 0 .673-.076.908-.337 1.048-.279.149-3.818.196-3.969.052m62.364-2.821a162 162 0 0 1-.205-3.174c0-.12.587-.855 1.302-1.631 1.17-1.27 1.313-1.505 1.43-2.339.115-.822.15-.882.314-.53.47 1.008 2.828-1.58 3.037-3.332.132-1.1.138-1.111.334-.56.31.869.336.86 1.739-.632 1.388-1.476 1.541-1.823 1.546-3.501 0-.412.081-.75.178-.75s.178.258.18.574c.006 1.425.205 1.357 2.201-.75 1.36-1.436 1.689-1.692 2.293-1.786 3.073-.482 7.163-1.195 7.456-1.3.177-.064.214.802.176 4.193-.047 4.273-.047 4.273-.753 4.29-.852.023-3.148.37-3.88.588-.291.087-1.056.205-1.7.264-1.311.12-1.386.06-1.388-1.104a16 16 0 0 0-.125-1.617c-.164-1.302-.353-.533-.382 1.562-.021 1.474-.021 1.474-1.74 3.22-.947.96-1.816 1.71-1.932 1.666s-.264.084-.328.286c-.14.44-2.882 3.143-3.19 3.143-.118 0-.268.165-.332.367-.11.344-1.623 1.98-2.52 2.722-.322.266-.437.289-.55.106q-.143-.234-.262.404c-.066.35-.18.635-.252.635-.074 0-.584.436-1.135.97-1.337 1.295-1.277 1.373-1.512-1.984m-12.638-2.026c-2.058-.521-1.933-.381-1.991-2.226-.058-1.85-.138-1.783 1.613-1.338 2.702.686 2.406.405 2.406 2.289 0 1.929.158 1.83-2.028 1.275m27.53-.06c-.181-.18-.279-.596-.28-1.19 0-.503-.051-1.448-.113-2.1-.13-1.37-.293-1.24 1.967-1.561a184 184 0 0 0 3.351-.517c2.382-.393 2.224-.56 2.166 2.27-.047 2.286-.067 2.404-.402 2.369-.194-.02-1.077.077-1.963.217s-1.991.3-2.456.356-.985.176-1.156.267c-.449.24-.799.205-1.115-.11m-103.201-.455c-.564-.191-2.684-.62-6.085-1.23-1.465-.262-1.405-.108-1.32-3.375.085-3.307.025-3.162 1.188-2.843.509.14 2.065.488 3.457.776 4.61.95 4.228.563 4.094 4.141-.11 2.933-.116 2.944-1.334 2.531m11.153-1.671c-.123-1.91-.344-1.713 2.517-2.237 2.842-.52 2.646-.6 2.646 1.09 0 1.782-.101 1.898-1.94 2.23-3.363.605-3.11.69-3.223-1.083m48.503 1.313c-.27-.204-.309-.468-.265-1.823l.052-1.584 6.35.06c3.493.033 6.413.12 6.49.193.076.072.116.839.088 1.703l-.052 1.571h-3.616c-1.988 0-4.21-.02-4.938-.046a26 26 0 0 0-2.558.06c-.902.077-1.32.041-1.551-.134m-7.04-.063c-.053-.052-1.633-.112-3.513-.132l-3.418-.037v-3.338l6.261.05c7.219.058 6.646-.117 6.562 2.009l-.061 1.543h-2.868c-1.578 0-2.91-.043-2.963-.095M90.61 212.4c-.192-.357-.216-3.271-.028-3.363.286-.14 12.485.243 12.638.396.22.22.31 2.075.133 2.735-.174.65-12.398.871-12.743.232m-11.59.07c-1.373-.034-2.012-.116-2.058-.264-.036-.118-.117-.92-.18-1.781l-.113-1.567 6.216.12c3.42.067 6.282.161 6.362.21.243.15.174 3.028-.076 3.19-.215.139-6.146.193-10.15.092m-41.31-1.116c-1.504-.059-3.032-.098-3.396-.088-.662.02-.662.02-.662-3.023V205.2h2.073c1.14 0 4.627.053 7.75.117l5.677.116-.1 2.838c-.053 1.561-.148 2.892-.208 2.958-.097.106-2.48.198-3.99.155a81 81 0 0 0-2.47.031c-1.067.026-3.17-.002-4.675-.06m97.013-3.52c-.727-.184-1.452-.336-1.61-.338-.635-.006-1.178-3.243-.582-3.472.31-.119 3.447.77 3.716 1.053.209.22.123 3.135-.091 3.108a51 51 0 0 1-1.433-.35M70.11 205.6c-.132-1.863-.341-1.671 2.427-2.232 2.687-.545 2.597-.595 2.531 1.407-.051 1.571-.051 1.571-1.095 1.7-.574.072-1.513.251-2.087.398-1.714.44-1.652.484-1.776-1.273m48.223 1.291c-.13-.156-.185-.813-.152-1.806l.051-1.56 6.35.06c3.492.032 6.402.111 6.466.175.064.065.073.852.02 1.75l-.097 1.634-3.368-.092c-4.972-.136-8.694-.146-8.892-.023-.096.059-.266-.002-.378-.138m-9.973-.068c-.029-.03-.854-.052-1.835-.05-2.14.002-2.18-.036-2.103-2.056l.052-1.361 6.26.055c3.442.03 6.312.089 6.377.129.088.055.077 2.097-.018 3.248-.008.092-8.64.127-8.733.035m-9.528-.18c-.031-.03-1.845-.072-4.03-.09-2.186-.02-4.008-.073-4.05-.12-.18-.199-.253-3.182-.082-3.288.208-.129 6.696-.07 10.188.092l2.381.111.013 1.552c.007.854-.064 1.6-.158 1.658-.175.108-4.16.188-4.262.085m-11.605-.14c-.06-.059-2.343-.13-5.075-.16-5.681-.059-5.232.098-5.31-1.848l-.061-1.5 5.027-.02c7.782-.03 7.486-.095 7.548 1.669.032.934-.024 1.563-.154 1.72-.205.246-1.758.356-1.975.14m-28.438-3.698c-.582-.14-1.455-.343-1.94-.451-.485-.11-.962-.257-1.059-.329-.097-.071-.533-.177-.97-.233-3.37-.44-3.175-.214-3.175-3.657 0-1.536.067-2.833.149-2.884.229-.141 8.07 1.868 8.332 2.135.158.16-.011 5.704-.173 5.685a34 34 0 0 1-1.164-.266m76.64-.726a5 5 0 0 1-.996-.329c-.306-.14-.782-.255-1.058-.257-.928-.005-1.032-.194-1.032-1.887 0-1.825-.107-1.78 2.381-.976 1.5.485 1.5.485 1.55 2.028.04 1.178-.002 1.538-.176 1.52a15 15 0 0 1-.668-.099m-65.166-1.156c-.204-.662-.235-2.782-.042-2.907.115-.075 1.2-.349 2.412-.608 2.346-.503 2.79-.454 2.558.283-.064.201-.169.881-.233 1.512-.118 1.146-.118 1.146-.735 1.158-.814.015-3.042.45-3.254.636-.249.217-.628.177-.706-.074m52.965.13c-.064-.064-1.215-.139-2.556-.166l-2.44-.049v-3.306l4.057.045c2.231.024 5.105.093 6.386.153l2.33.109-.05 1.49c-.06 1.762-.158 1.874-1.522 1.722-.534-.06-1.189-.1-1.455-.09-.59.022-2.01.018-2.91-.008a6 6 0 0 0-1.193.1c-.291.065-.582.065-.647 0m-78.295-.153c-.099-.1-2.86-.194-8.325-.282l-2.954-.047v-5.94l7.717.095c8.877.11 8.238.039 8.063.907-.074.363-.182 1.691-.24 2.952-.116 2.508.062 2.345-2.4 2.193-.194-.012-.67.033-1.058.1s-.75.077-.803.022m67.45-.108c-.05-.05-1.85-.09-4-.09h-3.91v-3.314l6.174.035c7.19.042 6.648-.122 6.475 1.956l-.125 1.5-2.262.002c-1.244 0-2.302-.04-2.352-.089m-10.522-.115c-.062-.063-2.278-.145-4.924-.183-5.745-.082-5.239-.08-5.78-.019-.435.05-.841-2.3-.553-3.193.077-.237 12.2-.145 12.59.095.224.14.155 2.968-.079 3.202-.224.224-1.062.29-1.254.098m-16.955-.378c-.03-.028-1.772-.061-3.872-.074-4.388-.028-4.085.106-4.213-1.86l-.095-1.455 4.172.024c7.08.04 8.413.149 8.372.681-.102 1.294-.295 2.407-.453 2.606-.156.195-3.71.266-3.91.078m-15.602-2.772c-.008-.097.102-1.446.246-2.998s.262-3.23.263-3.727c0-1.163.031-1.183 2.64-1.733 2.372-.5 2.469-.561 2.473-1.541.003-.7.297-1.048.549-.65.084.133.155.45.156.706.005.82.111.833 6.71.892l6.258.055.088-.882c.127-1.272.887-1.397 1.388-.23.577 1.346.28 1.289 6.704 1.289 6.421 0 5.8.139 6.104-1.367.182-.902 1.03-.68 1.34.353.365 1.219.389 1.223 6.481 1.333 5.935.107 6.025.09 6.031-1.069.007-1.286 1.23-1.324 1.447-.044.074.437.257.884.407.994.496.364 12.279.525 12.814.175.417-.274.449-.266.792.2.293.395.678.564 2.106.921 2.139.536 1.94.19 1.975 3.436.032 2.996.037 2.98-.95 2.72-3.373-.887-3.234-.75-3.257-3.243-.028-2.948-.608-2.86-.81.124-.15 2.228.093 2.093-3.565 1.977a234 234 0 0 0-6.283-.096c-3.714.003-3.437.183-3.44-2.237-.004-1.763-.196-2.621-.542-2.408-.092.057-.167.927-.167 1.934 0 2.624-.097 2.81-1.37 2.641-.556-.073-3.332-.147-6.169-.164s-5.217-.092-5.291-.166c-.074-.073-.178-1.08-.232-2.236-.156-3.4-.73-3.333-.873.102l-.088 2.117-6.262.004c-6.944.004-6.517.091-6.53-1.327-.01-1.199-.277-3.338-.436-3.497-.401-.401-.65.646-.554 2.33.146 2.545.246 2.459-2.68 2.315a202 202 0 0 0-6.104-.16c-4.182-.046-3.845.092-4.12-1.693-.498-3.237-1.33-3.471-1.284-.36.03 2.077-.056 2.281-.963 2.275-.288-.002-.92.082-1.406.187-2.094.452-2.748.556-2.903.46-.091-.057-.214.197-.274.564-.145.897-.399 1.943-.419 1.724m-9.898-4.84c-.792-.433-1.594-.681-1.921-.596-.204.054-.57-.033-.813-.193-.502-.328-2.038-.683-2.803-.647-.28.013-.645-.099-.81-.248-.166-.15-.492-.251-.725-.225-.424.046-.424.046-.473-2.908-.056-3.465-.36-3.194 2.695-2.405 6.555 1.692 5.909 1.367 5.909 2.973 0 3.793-.227 4.704-1.059 4.25m-13.582-2.295c-.145-.099-.517-.18-.826-.182a3.4 3.4 0 0 1-.993-.167c-.313-.119-.535-.09-.811.103-.396.277-1.261.262-3.984-.07-.878-.106-1.362-.088-1.676.063-.298.143-.999.18-2.16.116l-1.72-.096v-5.979l7.717.126c7.954.13 8.447.18 8.26.845-.06.21-.15 1.176-.203 2.146-.149 2.78-.17 2.857-.83 2.97-1.403.241-2.528.292-2.774.125m13.318-8.229a71 71 0 0 0-2.293-.698c-.873-.252-1.77-.532-1.993-.62a2.9 2.9 0 0 0-.882-.166c-1.729-.01-1.884-.272-1.937-3.28-.06-3.487-.141-3.298 1.23-2.868.611.192 2.366.701 3.9 1.132 3.851 1.082 3.474.689 3.474 3.626 0 3.223-.072 3.36-1.5 2.874M37.8 179.628a31 31 0 0 0-2.867-.058l-1.278.056v-6.027l5.864.125c3.226.068 6.858.174 8.07.235l2.205.11-.055 2.558c-.073 3.43.125 3.129-2.02 3.077-2.256-.056-1.803-.055-5.333-.004-1.65.023-3.713-.008-4.586-.071zm21.87-7.528c-.388-.144-.953-.29-1.255-.322s-.699-.138-.882-.234c-.807-.424-2.727-1.01-4.037-1.232-1.285-.218-1.323-.31-1.323-3.311 0-1.487.073-2.748.162-2.803.176-.11 2.929.723 6.277 1.897l2.116.742-.063 2.645c-.071 3.019-.053 2.97-.995 2.618m-11.289-2.48c-.291-.043-.6-.148-.688-.233-.092-.089-.31-.074-.514.035-.237.127-1.203.149-2.927.066-3.653-.174-6.14-.257-8.527-.285l-2.072-.024v-2.848l-.001-2.848 2.514.041c1.382.022 5.07.091 8.195.152l5.68.112-.099 2.053c-.192 3.977-.194 3.981-1.561 3.779" style="display:inline;fill:#5289ac" transform="translate(-33.653 -163.219)"/></svg>