<svg xmlns="http://www.w3.org/2000/svg" xml:space="preserve" width="146.738" height="150.885"><path d="M76.65.01C43.061-.552 12.048 21.544 2.723 55.432c-11.052 40.161 12.546 81.68 52.709 92.732 24.92 6.858 50.356.366 68.718-15.139l-18.851-5.187a60.5 60.5 0 0 1-14.545 5.926l27.683-100.598a60.5 60.5 0 0 1 9.442 12.488l18.86 5.19c-7.854-22.696-26.38-41.268-51.284-48.121A75.6 75.6 0 0 0 76.65.01m-1.802 15.133c5.477-.055 11.05.63 16.595 2.156a60.2 60.2 0 0 1 17.407 7.937L79.047 62.635 72.57 15.23l-.064-.02q1.168-.056 2.342-.067M60.13 17.119 32.447 117.721c-14.559-14.835-21.062-36.796-15.15-58.28S40.03 22.417 60.13 17.12m5.348 23.309c1.989 15.78 4.164 31.399 6.69 46.957C82.41 75.479 92.012 63.112 101.823 50.8L78.47 135.672a60.2 60.2 0 0 1-19.028-2.084 60.2 60.2 0 0 1-17.414-7.943z" style="fill:gray;fill-opacity:1;fill-rule:nonzero;stroke:none;stroke-width:.133333"/></svg>